<svg fill="none" xmlns="http://www.w3.org/2000/svg" viewBox="0 0 400 198"><path d="M134.76 158.957c4.8-6.01 9.62-12.01 14.39-18.04 31.24-39.42 62.52-78.81 93.63-118.33 2.57-3.27 3.5-2.86 5.98 0 31.48 36.42 63.14 72.7 94.69 109.06 17.79 20.51 35.49 41.1 53.19 61.69 1.03 1.19 2.5 2.21 2.58 4.43-7.79.2-15.16.81-22.74-2.88-32.11-15.61-64.53-30.59-96.76-45.95-2.42-1.15-3.92-.58-5.89.54-24.97 14.23-50.03 28.33-74.93 42.68-3.47 2-6.13 2.03-9.57.22-29.69-15.65-59.47-31.11-89.14-46.81-2.72-1.44-4.56-1.49-7.19-.01-29.42 16.51-58.91 32.89-88.39 49.29-1.23.69-2.23 2.01-4.61 1.62 5.65-5.93 10.94-11.59 16.34-17.13 57.5-58.91 115.02-117.79 172.45-176.77 2.82-2.89 4.34-3.83 7.58-.22 6.33 7.06 13.24 13.6 20.13 20.13 2.29 2.17 1.28 3.67.07 5.56-12.21 19.05-24.42 38.11-36.61 57.18-14.06 21.99-28.13 43.97-42.16 65.98-1.47 2.3-2.72 4.74-4.08 7.11.35.22.69.43 1.04.65Z" fill="#4338CA"/></svg>